<svg width="600" height="600" viewBox="0 0 600 600" fill="none" xmlns="http://www.w3.org/2000/svg">
<g clip-path="url(#clip0_11_3)">
<g clip-path="url(#clip1_11_3)" filter="url(#filter0_d_11_3)">
<path d="M228.177 243.924C207.752 233.036 182.133 240.839 171.245 261.264L32.672 521.22L146.537 486.539L313.652 575.621C334.077 586.509 359.696 578.706 370.584 558.281L449.769 409.735C460.656 389.31 452.853 363.69 432.428 352.802L228.177 243.924ZM96.9716 221.672C85.8306 215.733 74.4441 219.201 68.5053 230.342C62.5665 241.483 66.0345 252.87 77.1755 258.808L114.312 278.605L134.108 241.468L96.9716 221.672ZM235.62 319.425L384.166 398.609L364.37 435.746L215.824 356.561L235.62 319.425ZM38.8112 286.047C27.6702 280.108 16.2837 283.576 10.3448 294.717C4.40601 305.858 7.8741 317.245 19.0151 323.183L74.7198 352.878L94.5159 315.741L38.8112 286.047ZM196.027 393.698L288.869 443.188L269.073 480.324L176.231 430.834L196.027 393.698ZM-19.3493 350.422C-30.4903 344.483 -41.8768 347.951 -47.8156 359.092C-53.7544 370.233 -50.2864 381.62 -39.1454 387.558L35.1277 427.151L54.9237 390.014L-19.3493 350.422Z" fill="#57AEC6"/>
<path d="M22.5238 515.81L9.46379 540.31L36.0227 532.221L145.331 498.928L308.242 585.77C334.272 599.645 366.857 589.72 380.732 563.691L459.917 415.145C473.792 389.115 463.868 356.53 437.838 342.654L233.587 233.776C207.557 219.9 174.972 229.825 161.096 255.855L22.5238 515.81ZM108.902 288.753L119.051 294.162L124.46 284.014L144.256 246.878L149.666 236.729L139.518 231.32L102.381 211.524C94.5046 207.325 85.729 206.076 77.437 208.601C69.145 211.127 62.5558 217.056 58.3571 224.933C54.1584 232.809 52.9089 241.585 55.4344 249.877C57.96 258.169 63.8892 264.758 71.7659 268.957L108.902 288.753ZM69.3102 363.026L79.4584 368.435L84.868 358.287L104.664 321.151L110.074 311.003L99.9256 305.593L44.2208 275.899C36.3441 271.7 27.5685 270.451 19.2765 272.976C10.9845 275.502 4.39538 281.431 0.196645 289.308C-4.0021 297.184 -5.25157 305.96 -2.72602 314.252C-0.200455 322.544 5.72879 329.133 13.6054 333.332L69.3102 363.026ZM29.718 437.299L39.8662 442.709L45.2758 432.56L65.0719 395.424L70.4816 385.276L60.3334 379.866L-13.9397 340.274C-21.8163 336.075 -30.5919 334.826 -38.8839 337.351C-47.1759 339.877 -53.7651 345.806 -57.9638 353.683C-62.1625 361.559 -63.412 370.335 -60.8865 378.627C-58.3609 386.919 -52.4317 393.508 -44.555 397.707L29.718 437.299ZM240.358 334.982L368.608 403.348L359.631 420.188L231.381 351.823L240.358 334.982ZM200.766 409.255L273.311 447.926L264.334 464.767L191.789 426.096L200.766 409.255Z" stroke="white" stroke-opacity="0.89" stroke-width="23"/>
</g>
<g clip-path="url(#clip2_11_3)">
<path d="M454.116 268.337L424.397 397.313L424.348 401.88L422.084 401.856L407.282 420.453L405.043 423.267L402.008 421.338L369.508 400.693L367.098 399.162L367.763 396.386L426.764 150.005C420.699 145.482 413.049 138.832 408.939 130.086C389.472 95.1114 398.676 50.8642 432.52 30.1042C466.229 9.42659 508.789 19.2166 528.577 54.6178C548.225 89.7695 536.683 133.937 505.174 154.66L504.989 154.781L504.793 154.881L504.565 154.998C496.98 158.866 488.978 162.947 480.879 165.327L469.102 214.3L515.148 226.394C519.456 220.082 525.787 212.131 534.131 207.823C567.82 187.251 610.295 197.062 630.057 232.417C649.617 267.411 640.432 311.741 606.547 332.527C572.838 353.204 530.278 343.414 510.49 308.013L510.417 307.882L510.354 307.746L510.285 307.598C506.497 299.444 502.521 290.884 500.3 280.468L454.116 268.337ZM555.022 243.435L554.856 243.557L554.678 243.66C548.394 247.329 544.111 253.954 542.365 261.648C540.625 269.319 541.501 277.694 545.113 284.529C554.411 300.413 572.787 304.119 585.548 294.786L585.715 294.665L585.893 294.561C598.936 286.945 604.622 267.461 595.624 253.964C586.099 239.677 567.527 234.289 555.022 243.435ZM443.442 108.667L443.552 108.832L443.646 109.007C450.719 122.303 469.087 126.598 482.21 118.988C497.258 109.318 501.23 89.7538 494.033 75.9992C484.475 61.8361 465.999 56.5255 453.542 65.6357C439.958 75.5705 434.522 95.2858 443.442 108.667ZM431.121 236.145L431.557 236.612L431.826 237.192C432.121 237.827 432.41 238.131 432.598 238.28C432.777 238.421 432.983 238.517 433.277 238.565C433.957 238.674 435.181 238.514 436.905 237.635C437.887 237.134 438.15 236.591 438.244 235.958C438.372 235.087 438.172 233.693 437.322 231.863C437.028 231.228 436.739 230.923 436.551 230.774C436.372 230.633 436.166 230.537 435.872 230.49C435.191 230.381 433.968 230.54 432.243 231.42C430.764 232.174 430.156 233.067 430.004 233.599C429.921 233.89 429.77 234.701 431.121 236.145ZM256.014 160.756L257.451 159.874L259.086 160.288L395.852 194.882L399.64 195.841L398.77 199.65L387.704 248.129L386.784 252.157L382.788 251.107L224.998 209.661L223.529 209.276L222.686 208.012L212.303 192.438L209.999 188.982L213.54 186.81L256.014 160.756Z" fill="#5BDDC7" stroke="#F2FFFD" stroke-width="8"/>
</g>
</g>
<defs>
<filter id="filter0_d_11_3" x="-171" y="24" width="765.191" height="765.191" filterUnits="userSpaceOnUse" color-interpolation-filters="sRGB">
<feFlood flood-opacity="0" result="BackgroundImageFix"/>
<feColorMatrix in="SourceAlpha" type="matrix" values="0 0 0 0 0 0 0 0 0 0 0 0 0 0 0 0 0 0 127 0" result="hardAlpha"/>
<feMorphology radius="1" operator="dilate" in="SourceAlpha" result="effect1_dropShadow_11_3"/>
<feOffset dx="-3" dy="3"/>
<feGaussianBlur stdDeviation="20"/>
<feColorMatrix type="matrix" values="0 0 0 0 0 0 0 0 0 0.783333 0 0 0 0 1 0 0 0 0.45 0"/>
<feBlend mode="normal" in2="BackgroundImageFix" result="effect1_dropShadow_11_3"/>
<feBlend mode="normal" in="SourceGraphic" in2="effect1_dropShadow_11_3" result="shape"/>
</filter>
<clipPath id="clip0_11_3">
<rect width="600" height="600" rx="96" fill="white"/>
</clipPath>
<clipPath id="clip1_11_3">
<rect width="505" height="505" fill="white" transform="translate(110.553 62) rotate(28.0604)"/>
</clipPath>
<clipPath id="clip2_11_3">
<rect width="448.222" height="457.951" fill="white" transform="matrix(-0.999943 -0.0106783 -0.0106783 0.999943 634.086 -23.2137)"/>
</clipPath>
</defs>
</svg>
